<svg xmlns="http://www.w3.org/2000/svg" viewBox="0 0 680 460" fill="none" role="img" aria-label="Kudzu Arts print shop — botanical prints drying on a line"><path d="M30 120 C 200 95, 480 95, 650 120" fill="none" stroke="#211c2a" stroke-width="2.4" stroke-linecap="round"></path><path d="M40 118 C 120 100, 160 138, 240 116 C 320 96, 360 134, 440 114 C 520 96, 560 132, 640 116" fill="none" stroke="#8a8f43" stroke-width="2.6" stroke-linecap="round" opacity="0.95"></path><path d="M40 118 C 120 100, 160 138, 240 116 C 320 96, 360 134, 440 114 C 520 96, 560 132, 640 116" fill="none" stroke="#7d9468" stroke-width="0.9" stroke-linecap="round" opacity="0.5"></path><g transform="translate(110 112) rotate(-30) scale(1.5)">
    <ellipse cx="0" cy="0" rx="6.84" ry="2.8499999999999996" transform="rotate(-46)" fill="#4a6b3d" fill-opacity="0.95"></ellipse><ellipse cx="0" cy="0" rx="6.84" ry="2.8499999999999996" transform="rotate(46)" fill="#4a6b3d" fill-opacity="0.95"></ellipse><ellipse cx="0" cy="0" rx="7.776000000000001" ry="3.24" transform="rotate(0)" fill="#7d9468" fill-opacity="1"></ellipse>
    <ellipse cx="0" cy="0" rx="1.2" ry="1.2" fill="#7d9468"></ellipse>
    <path d="M0 0 L0 9" stroke="#5f5a2c" stroke-width="1.1" stroke-linecap="round"></path>
  </g><g transform="translate(300 110) rotate(35) scale(1.5)">
    <ellipse cx="0" cy="0" rx="6.84" ry="2.8499999999999996" transform="rotate(-46)" fill="#4a6b3d" fill-opacity="0.95"></ellipse><ellipse cx="0" cy="0" rx="6.84" ry="2.8499999999999996" transform="rotate(46)" fill="#4a6b3d" fill-opacity="0.95"></ellipse><ellipse cx="0" cy="0" rx="7.776000000000001" ry="3.24" transform="rotate(0)" fill="#7d9468" fill-opacity="1"></ellipse>
    <ellipse cx="0" cy="0" rx="1.2" ry="1.2" fill="#7d9468"></ellipse>
    <path d="M0 0 L0 9" stroke="#5f5a2c" stroke-width="1.1" stroke-linecap="round"></path>
  </g><g transform="translate(500 110) rotate(-25) scale(1.5)">
    <ellipse cx="0" cy="0" rx="6.84" ry="2.8499999999999996" transform="rotate(-46)" fill="#4a6b3d" fill-opacity="0.95"></ellipse><ellipse cx="0" cy="0" rx="6.84" ry="2.8499999999999996" transform="rotate(46)" fill="#4a6b3d" fill-opacity="0.95"></ellipse><ellipse cx="0" cy="0" rx="7.776000000000001" ry="3.24" transform="rotate(0)" fill="#7d9468" fill-opacity="1"></ellipse>
    <ellipse cx="0" cy="0" rx="1.2" ry="1.2" fill="#7d9468"></ellipse>
    <path d="M0 0 L0 9" stroke="#5f5a2c" stroke-width="1.1" stroke-linecap="round"></path>
  </g><g transform="translate(600 120) rotate(40) scale(1.5)">
    <ellipse cx="0" cy="0" rx="6.84" ry="2.8499999999999996" transform="rotate(-46)" fill="#4a6b3d" fill-opacity="0.95"></ellipse><ellipse cx="0" cy="0" rx="6.84" ry="2.8499999999999996" transform="rotate(46)" fill="#4a6b3d" fill-opacity="0.95"></ellipse><ellipse cx="0" cy="0" rx="7.776000000000001" ry="3.24" transform="rotate(0)" fill="#7d9468" fill-opacity="1"></ellipse>
    <ellipse cx="0" cy="0" rx="1.2" ry="1.2" fill="#7d9468"></ellipse>
    <path d="M0 0 L0 9" stroke="#5f5a2c" stroke-width="1.1" stroke-linecap="round"></path>
  </g><g>
    
    <rect x="138" y="113" width="14" height="13" rx="2" fill="#211c2a"></rect>
    <rect x="141" y="110" width="8" height="6" rx="2" fill="#5f5a2c"></rect>
    
    <rect x="70" y="122" width="150" height="200" fill="#f3ecdb" stroke="#211c2a" stroke-width="2"></rect>
    <rect x="78" y="130" width="134" height="184" fill="none" stroke="#4a6b3d" stroke-width="1" opacity="0.5"></rect>
    
    <g transform="translate(145 216) rotate(-8) scale(2)">
    <ellipse cx="0" cy="0" rx="6.84" ry="2.8499999999999996" transform="rotate(-46)" fill="#4a6b3d" fill-opacity="0.95"></ellipse><ellipse cx="0" cy="0" rx="6.84" ry="2.8499999999999996" transform="rotate(46)" fill="#4a6b3d" fill-opacity="0.95"></ellipse><ellipse cx="0" cy="0" rx="7.776000000000001" ry="3.24" transform="rotate(0)" fill="#7d9468" fill-opacity="1"></ellipse>
    <ellipse cx="0" cy="0" rx="1.2" ry="1.2" fill="#7d9468"></ellipse>
    <path d="M0 0 L0 9" stroke="#5f5a2c" stroke-width="1.1" stroke-linecap="round"></path>
  </g>
    
    <text x="145" y="308" text-anchor="middle" font-family="monospace" font-size="9" fill="#211c2a" opacity="0.6">1/40</text>
  </g><g>
    
    <rect x="333" y="113" width="14" height="13" rx="2" fill="#211c2a"></rect>
    <rect x="336" y="110" width="8" height="6" rx="2" fill="#5f5a2c"></rect>
    
    <rect x="265" y="122" width="150" height="215" fill="#f3ecdb" stroke="#211c2a" stroke-width="2"></rect>
    <rect x="273" y="130" width="134" height="199" fill="none" stroke="#5f5a2c" stroke-width="1" opacity="0.5"></rect>
    
    <g transform="translate(340 223.5) rotate(25) scale(2)">
    <ellipse cx="0" cy="0" rx="6.84" ry="2.8499999999999996" transform="rotate(-46)" fill="#5f5a2c" fill-opacity="0.95"></ellipse><ellipse cx="0" cy="0" rx="6.84" ry="2.8499999999999996" transform="rotate(46)" fill="#5f5a2c" fill-opacity="0.95"></ellipse><ellipse cx="0" cy="0" rx="7.776000000000001" ry="3.24" transform="rotate(0)" fill="#7d9468" fill-opacity="1"></ellipse>
    <ellipse cx="0" cy="0" rx="1.2" ry="1.2" fill="#7d9468"></ellipse>
    <path d="M0 0 L0 9" stroke="#5f5a2c" stroke-width="1.1" stroke-linecap="round"></path>
  </g>
    
    <text x="340" y="323" text-anchor="middle" font-family="monospace" font-size="9" fill="#211c2a" opacity="0.6">1/40</text>
  </g><g>
    
    <rect x="528" y="113" width="14" height="13" rx="2" fill="#211c2a"></rect>
    <rect x="531" y="110" width="8" height="6" rx="2" fill="#5f5a2c"></rect>
    
    <rect x="460" y="122" width="150" height="195" fill="#f3ecdb" stroke="#211c2a" stroke-width="2"></rect>
    <rect x="468" y="130" width="134" height="179" fill="none" stroke="#4a6b3d" stroke-width="1" opacity="0.5"></rect>
    
    <g transform="translate(535 213.5) rotate(-18) scale(2)">
    <ellipse cx="0" cy="0" rx="6.84" ry="2.8499999999999996" transform="rotate(-46)" fill="#4a6b3d" fill-opacity="0.95"></ellipse><ellipse cx="0" cy="0" rx="6.84" ry="2.8499999999999996" transform="rotate(46)" fill="#4a6b3d" fill-opacity="0.95"></ellipse><ellipse cx="0" cy="0" rx="7.776000000000001" ry="3.24" transform="rotate(0)" fill="#7d9468" fill-opacity="1"></ellipse>
    <ellipse cx="0" cy="0" rx="1.2" ry="1.2" fill="#7d9468"></ellipse>
    <path d="M0 0 L0 9" stroke="#5f5a2c" stroke-width="1.1" stroke-linecap="round"></path>
  </g>
    
    <text x="535" y="303" text-anchor="middle" font-family="monospace" font-size="9" fill="#211c2a" opacity="0.6">1/40</text>
  </g><g transform="translate(150 380) rotate(60) scale(1.8)">
    <ellipse cx="0" cy="0" rx="6.84" ry="2.8499999999999996" transform="rotate(-46)" fill="#4a6b3d" fill-opacity="0.95"></ellipse><ellipse cx="0" cy="0" rx="6.84" ry="2.8499999999999996" transform="rotate(46)" fill="#4a6b3d" fill-opacity="0.95"></ellipse><ellipse cx="0" cy="0" rx="7.776000000000001" ry="3.24" transform="rotate(0)" fill="#7d9468" fill-opacity="1"></ellipse>
    <ellipse cx="0" cy="0" rx="1.2" ry="1.2" fill="#7d9468"></ellipse>
    <path d="M0 0 L0 9" stroke="#5f5a2c" stroke-width="1.1" stroke-linecap="round"></path>
  </g><g transform="translate(560 360) rotate(-40) scale(1.6)">
    <ellipse cx="0" cy="0" rx="6.84" ry="2.8499999999999996" transform="rotate(-46)" fill="#5f5a2c" fill-opacity="0.95"></ellipse><ellipse cx="0" cy="0" rx="6.84" ry="2.8499999999999996" transform="rotate(46)" fill="#5f5a2c" fill-opacity="0.95"></ellipse><ellipse cx="0" cy="0" rx="7.776000000000001" ry="3.24" transform="rotate(0)" fill="#7d9468" fill-opacity="1"></ellipse>
    <ellipse cx="0" cy="0" rx="1.2" ry="1.2" fill="#7d9468"></ellipse>
    <path d="M0 0 L0 9" stroke="#5f5a2c" stroke-width="1.1" stroke-linecap="round"></path>
  </g><g transform="translate(380 405) rotate(15) scale(1.4)">
    <ellipse cx="0" cy="0" rx="6.84" ry="2.8499999999999996" transform="rotate(-46)" fill="#4a6b3d" fill-opacity="0.95"></ellipse><ellipse cx="0" cy="0" rx="6.84" ry="2.8499999999999996" transform="rotate(46)" fill="#4a6b3d" fill-opacity="0.95"></ellipse><ellipse cx="0" cy="0" rx="7.776000000000001" ry="3.24" transform="rotate(0)" fill="#7d9468" fill-opacity="1"></ellipse>
    <ellipse cx="0" cy="0" rx="1.2" ry="1.2" fill="#7d9468"></ellipse>
    <path d="M0 0 L0 9" stroke="#5f5a2c" stroke-width="1.1" stroke-linecap="round"></path>
  </g></svg>